<svg xmlns="http://www.w3.org/2000/svg" width="800px" height="800px" viewBox="0 0 24 24" fill="none">
<g id="Edit / Copy">
<path id="Vector" d="M9 9V6.2002C9 5.08009 9 4.51962 9.21799 4.0918C9.40973 3.71547 9.71547 3.40973 10.0918 3.21799C10.5196 3 11.0801 3 12.2002 3H17.8002C18.9203 3 19.4801 3 19.9079 3.21799C20.2842 3.40973 20.5905 3.71547 20.7822 4.0918C21.0002 4.51962 21.0002 5.07967 21.0002 6.19978V11.7998C21.0002 12.9199 21.0002 13.48 20.7822 13.9078C20.5905 14.2841 20.2839 14.5905 19.9076 14.7822C19.4802 15 18.921 15 17.8031 15H15M9 9H6.2002C5.08009 9 4.51962 9 4.0918 9.21799C3.71547 9.40973 3.40973 9.71547 3.21799 10.0918C3 10.5196 3 11.0801 3 12.2002V17.8002C3 18.9203 3 19.4801 3.21799 19.9079C3.40973 20.2842 3.71547 20.5905 4.0918 20.7822C4.5192 21 5.07899 21 6.19691 21H11.8036C12.9215 21 13.4805 21 13.9079 20.7822C14.2842 20.5905 14.5905 20.2839 14.7822 19.9076C15 19.4802 15 18.921 15 17.8031V15M9 9H11.8002C12.9203 9 13.4801 9 13.9079 9.21799C14.2842 9.40973 14.5905 9.71547 14.7822 10.0918C15 10.5192 15 11.079 15 12.1969L15 15" stroke="inherit" stroke-width="2" stroke-linecap="round" stroke-linejoin="round"/>
</g>
</svg>